<?xml version="1.0" standalone="no"?>
<!DOCTYPE svg PUBLIC "-//W3C//DTD SVG 20010904//EN"
 "http://www.w3.org/TR/2001/REC-SVG-20010904/DTD/svg10.dtd">
<svg version="1.0" xmlns="http://www.w3.org/2000/svg"
 width="700.000000pt" height="700.000000pt" viewBox="0 0 700.000000 700.000000"
 preserveAspectRatio="xMidYMid meet">
<metadata>
Created by potrace 1.11, written by Peter Selinger 2001-2013
</metadata>
<g transform="translate(0.000000,700.000000) scale(0.100000,-0.100000)"
fill="#000000" stroke="none">
<path d="M3215 6989 c-748 -64 -1435 -351 -1995 -835 -551 -475 -938 -1101
-1114 -1799 -34 -137 -72 -346 -88 -490 -17 -155 -17 -575 0 -730 63 -570 255
-1100 567 -1570 270 -405 644 -771 1047 -1024 457 -287 944 -456 1503 -523
139 -16 595 -16 730 0 847 103 1555 446 2131 1034 204 208 346 389 490 623
269 439 429 910 496 1460 16 130 16 600 0 730 -73 596 -246 1079 -557 1555
-139 213 -239 336 -449 548 -657 668 -1554 1038 -2496 1031 -91 -1 -210 -6
-265 -10z m-178 -1200 c34 -13 80 -55 99 -91 12 -22 14 -128 14 -616 0 -581 0
-590 21 -616 32 -40 60 -33 135 34 260 230 645 232 994 5 99 -65 251 -219 323
-327 52 -78 72 -98 98 -98 4 0 82 73 171 163 349 349 555 449 895 434 207 -9
342 -59 462 -173 183 -172 223 -452 99 -687 -51 -95 -156 -200 -246 -244 -67
-34 -84 -38 -171 -41 -241 -10 -401 92 -562 356 -66 107 -93 138 -142 163
-136 70 -408 -79 -522 -285 -73 -131 -169 -426 -146 -449 18 -18 34 8 80 133
57 152 130 292 150 288 20 -4 55 -188 70 -372 40 -476 -49 -867 -276 -1211
-88 -133 -282 -328 -413 -413 -175 -116 -369 -197 -570 -239 -132 -28 -501
-25 -670 5 -327 59 -591 155 -747 273 l-53 39 -2 1538 c-3 1455 -4 1539 -21
1577 -24 54 -53 82 -112 112 -114 58 -160 120 -159 213 2 99 56 171 161 213
115 46 782 301 818 313 49 16 183 18 222 3z"/>
<path d="M3300 3945 c-68 -31 -120 -99 -133 -175 -4 -19 -7 -372 -8 -785 0
-649 2 -762 16 -839 26 -147 63 -212 140 -247 196 -91 369 170 441 666 25 168
25 527 1 685 -45 292 -127 520 -225 623 -67 71 -166 101 -232 72z"/>
</g>
</svg>
